<svg xmlns="http://www.w3.org/2000/svg" viewBox="0 0 712.51 443.9"><defs><style>.cls-1{fill:#3e69ac;}.cls-2{fill-rule:evenodd;}</style></defs><g id="Ebene_2" data-name="Ebene 2"><g id="Ebene_1-2" data-name="Ebene 1"><g id="Ebene_2-2" data-name="Ebene 2"><g id="svg2928"><g id="layer1"><g id="g2879"><path id="path97" class="cls-1" d="M92.1,348.16c.39-4.27,1.18-11.85,1.46-15.79a564.76,564.76,0,0,0,.87-70.78l-.52-7.34H86.57s-40.45,2-60.39,5.41c.39-5.45.75-12.55.75-20.53s0-14.09-.4-18.67c9.59,1.78,24.55,4.31,39.12,5.69A425.17,425.17,0,0,0,109.5,228a424.47,424.47,0,0,0,43.82-1.85c14.57-1.38,29.49-4,39.08-5.69-.2,4.58-.4,10.74-.4,18.67s.4,15.08.79,20.53C172.85,256.21,132.4,255,132.4,255H125l-.48,7.33a561.89,561.89,0,0,0,.87,70.6c.28,3.94,1.06,11.54,1.46,15.75A369.85,369.85,0,0,0,133.32,390c-5.24-.47-10-.79-13.9-.94H99.56c-4,0-8.69.47-13.9.94a383.72,383.72,0,0,0,6.44-41.44"/><g id="g101"><g id="g103"><path id="path111" class="cls-2" d="M109.52,443.9S60,428.11,28.22,369.13A238.05,238.05,0,0,1,0,258.57V188.7H219v69.87a238,238,0,0,1-28.22,110.52C159,428,109.52,443.9,109.52,443.9Zm-5.13-10A136.33,136.33,0,0,1,85,422.65a163,163,0,0,1-50.23-56.88A231.32,231.32,0,0,1,7.45,258.67V196.15h204.1v62.52a231.32,231.32,0,0,1-27.32,107.1A163,163,0,0,1,134,422.65a135.38,135.38,0,0,1-19.39,11.29c-2.09,1-4,1.69-5,2.21-1.26-.52-3-1.23-5.13-2.21"/></g></g><path id="path113" class="cls-2" d="M109.5,396.52H99.87c-5.68,0-15.31,1-24.43,2a386,386,0,0,0,8.72-51.32c.4-4.22,1.15-11.84,1.46-15.79a557.86,557.86,0,0,0,.87-69.63,357.64,357.64,0,0,0-69.28,7.26A248.88,248.88,0,0,0,19,238.79a229.78,229.78,0,0,0-1.18-28.5s24.79,5.29,48.59,7.58a413.48,413.48,0,0,0,43.1,1.81,412,412,0,0,0,43-1.81c23.68-2.29,48.63-7.58,48.63-7.58a229.78,229.78,0,0,0-1.18,28.5,257.15,257.15,0,0,0,1.73,30.27,356.06,356.06,0,0,0-69.23-7,557.88,557.88,0,0,0,.87,69.63c.27,4,1.06,11.49,1.46,15.79a385.86,385.86,0,0,0,8.72,51.31c-9.12-1.06-18-1.77-24.43-2S109.5,396.52,109.5,396.52Zm-9.94-2.23c-5.48.24-12.76.79-20.47,1.58a387.29,387.29,0,0,0,8-47.49c.4-4.23,1.2-11.87,1.47-15.82a550.8,550.8,0,0,0,.88-70.25v-2.85H86.53A365.77,365.77,0,0,0,20,265.68a263.81,263.81,0,0,0,1.31-26.52c0-12.38-.44-20.34-.75-24.73,7.94,1.62,26.86,5.1,45.15,6.81a431.08,431.08,0,0,0,43.72,1.86,431.08,431.08,0,0,0,43.72-1.86c18.13-1.71,36.89-5.19,45-6.81-.36,4.39-.76,12.35-.76,24.73a263.81,263.81,0,0,0,1.31,26.52,366.38,366.38,0,0,0-66.26-6.22h-2.86v2.85a558.23,558.23,0,0,0,.8,70.25c.28,3.95,1.07,11.55,1.43,15.82a387.29,387.29,0,0,0,7.95,47.49c-7.71-.79-15-1.34-20.47-1.58s-9.06,0-9.78,0H99.82"/></g></g></g></g><path class="cls-1" d="M112,.2l4.34.41c9.94.9,18.92,3.69,29.94,9.29,9.17,4.68,12,6.74,22.77,16.74,6.75,6.25,10.58,7.51,19.07,6.29,11.55-1.65,19.07-1.5,25.75.52,11.51,3.47,17.73,13,20.56,31.39,1.06,7,1.14,8.22,1.08,19.19l-.06,10.25,1.68,2.51a140.78,140.78,0,0,1,11.94,22.3A144.41,144.41,0,0,1,260.6,163c.23,2.19.49,4.64.59,5.48a27.53,27.53,0,0,1,0,8.23c-.44,2.94-1.12,5.14-1.38,4.43-.08-.22-1.13-4.49-2.32-9.5-3.48-14.5-5.52-21.85-8.33-30-5.71-16.46-12.21-28.7-21.1-39.75l-1.23-1.5-5.16,0a44.41,44.41,0,0,1-12.12-1.27,54.78,54.78,0,0,1-23.37-11.67A8.27,8.27,0,0,0,184.1,86a11.84,11.84,0,0,0-.94,1.85c-3.48,7.84-10.67,18.07-17.92,25.42-13.83,14-30.38,23.29-50.89,28.49a5.42,5.42,0,0,0-2,.75c-.08.26,4.15,31,4.4,32,0,.22.15.39.22.39s1.48.24,3.12.54c10.9,1.93,17.17,6.12,19.34,12.93.44,1.38,1,5.72.78,6a10.58,10.58,0,0,1-1.87-1.9,14.72,14.72,0,0,0-5.8-4.29A43.91,43.91,0,0,0,125.8,186h-.28l.11,4.57c.06,2.51.06,4.94,0,5.39l-.13.82-.92-1.57a20.8,20.8,0,0,0-8-8.24c-2.17-1.14-3.46-1.42-7.21-1.59a14.63,14.63,0,0,1-3.87-.45c-1.07-.64-1-1.33.29-2.79a4.38,4.38,0,0,0,1.15-1.87,66,66,0,0,0-.8-9.89c-1.28-9.31-3.82-17.12-7.09-21.72l-.92-1.28H96.37a16.78,16.78,0,0,0-16.24,11.46c-2,5.72-2.47,17.55-.83,22.59,1.4,4.29,3.25,5.5,12.9,8.44,10,3,13,4.48,15.94,7.64,1.21,1.3,2.61,3.41,2.42,3.62a10.89,10.89,0,0,1-2.34-.43,68.18,68.18,0,0,0-9.41-1.48c-5.08-.49-7.4-.6-7.55-.36a17.75,17.75,0,0,0,.55,3.07A41.13,41.13,0,0,1,93,208.71a31.74,31.74,0,0,1-3.06-1.87c-5.17-3.39-9.3-5.47-12.75-6.46-1.25-.37-2.45-.47-5.91-.6-4.49-.15-5-.26-5.37-1.12-.19-.36,0-.66,1.47-2.4,2.75-3.24,3.15-4.53,3.13-10.45a28.9,28.9,0,0,0-.43-6.22c-1.57-8.44-5.61-16.16-12.64-24.23-3.08-3.54-4.59-5-10.93-10.41-7-6-9.5-8.43-12.39-12.1C26.31,123,22.63,111.49,20.91,91.71c-1-11.65-1-17,0-25.86C22.69,50.31,28,38.3,38.12,27.18A65,65,0,0,1,55.51,13.94C68.11,7,84.26,1.88,97.39.61l4.34-.43A70.58,70.58,0,0,1,112,.2Z"/><path d="M293,315.7V70.33h29.08V192L431.2,70.33h39.42l-92.19,99.42,96.24,146H436.29L358,191.51l-36,39.16v85Z"/><path class="cls-1" d="M495.65,105V70.33h27V105Zm0,210.72V138h27V315.7Z"/><path class="cls-1" d="M590.43,315.7,529.87,138h28.48L592.53,244.4q5.55,17.23,10.19,35.82,3.6-14.07,10-33.81L648.14,138h27.74L615.61,315.7Z"/><path class="cls-1" d="M682.36,105V70.33h27V105Zm0,210.72V138h27V315.7Z"/><path d="M321.3,408.21v-8.32l30-.05v26.3a53,53,0,0,1-14.26,8.29A42.38,42.38,0,0,1,322,437.21a40.26,40.26,0,0,1-19-4.47,29.53,29.53,0,0,1-12.88-12.93,40.72,40.72,0,0,1-4.35-18.9,43.81,43.81,0,0,1,4.33-19.32,28.77,28.77,0,0,1,12.44-13.31,38.92,38.92,0,0,1,18.71-4.35,37.08,37.08,0,0,1,13.9,2.49,23.06,23.06,0,0,1,9.74,6.93,30.76,30.76,0,0,1,5.36,11.6l-8.46,2.32a26,26,0,0,0-4-8.5,16.17,16.17,0,0,0-6.77-5A24.79,24.79,0,0,0,321.3,372a28.67,28.67,0,0,0-11.12,2,20.54,20.54,0,0,0-7.56,5.15,24.61,24.61,0,0,0-4.48,7,37.23,37.23,0,0,0-2.7,14.27q0,9.46,3.26,15.85a21,21,0,0,0,9.5,9.48,29.43,29.43,0,0,0,13.24,3.09,31.39,31.39,0,0,0,11.9-2.35,30.75,30.75,0,0,0,8.79-5V408.21Z"/><path d="M366.74,436V365.13h9.38V436Z"/><path d="M392.84,436V365.13h51.24v8.37H402.22v21.7h39.2v8.32h-39.2v24.12h43.51V436Z"/><path d="M455.49,413.23l8.85-.77a19.42,19.42,0,0,0,2.92,8.72,15.91,15.91,0,0,0,7.13,5.51,26.87,26.87,0,0,0,10.88,2.11,25.93,25.93,0,0,0,9.47-1.6,13.16,13.16,0,0,0,6.12-4.37,10.22,10.22,0,0,0,2-6.07,9.21,9.21,0,0,0-1.93-5.82,14.37,14.37,0,0,0-6.38-4.19,124.84,124.84,0,0,0-12.62-3.45q-9.76-2.34-13.68-4.43a19.21,19.21,0,0,1-7.56-6.59,16.18,16.18,0,0,1-2.49-8.82,18.05,18.05,0,0,1,3-10,18.86,18.86,0,0,1,8.9-7.08,33.75,33.75,0,0,1,13-2.41,35.57,35.57,0,0,1,13.9,2.53,20,20,0,0,1,9.25,7.47,21.54,21.54,0,0,1,3.49,11.17l-9,.68q-.74-6.72-4.91-10.16t-12.35-3.43q-8.5,0-12.4,3.12a9.33,9.33,0,0,0-3.89,7.52,8.07,8.07,0,0,0,2.75,6.28q2.72,2.46,14.14,5.05t15.69,4.52a21.43,21.43,0,0,1,9.13,7.23A17.59,17.59,0,0,1,511.9,416a19.29,19.29,0,0,1-3.24,10.66,21.35,21.35,0,0,1-9.3,7.78,32.5,32.5,0,0,1-13.66,2.78q-9.61,0-16.12-2.81a22.59,22.59,0,0,1-10.2-8.43A24,24,0,0,1,455.49,413.23Z"/><path d="M521.52,413.23l8.85-.77a19.54,19.54,0,0,0,2.92,8.72,15.91,15.91,0,0,0,7.13,5.51,26.9,26.9,0,0,0,10.88,2.11,25.85,25.85,0,0,0,9.47-1.6,13.16,13.16,0,0,0,6.12-4.37,10.16,10.16,0,0,0,2-6.07,9.22,9.22,0,0,0-1.94-5.82,14.32,14.32,0,0,0-6.38-4.19A124.84,124.84,0,0,0,548,403.3q-9.76-2.34-13.68-4.43a19.21,19.21,0,0,1-7.56-6.59,16.18,16.18,0,0,1-2.49-8.82,18,18,0,0,1,3-10,18.78,18.78,0,0,1,8.89-7.08,33.75,33.75,0,0,1,13-2.41,35.54,35.54,0,0,1,13.9,2.53,20.1,20.1,0,0,1,9.26,7.47,21.44,21.44,0,0,1,3.48,11.17l-9,.68q-.74-6.72-4.91-10.16t-12.35-3.43q-8.5,0-12.4,3.12a9.36,9.36,0,0,0-3.89,7.52,8.07,8.07,0,0,0,2.75,6.28q2.72,2.46,14.14,5.05t15.69,4.52a21.52,21.52,0,0,1,9.14,7.23A17.66,17.66,0,0,1,577.93,416a19.36,19.36,0,0,1-3.23,10.66,21.38,21.38,0,0,1-9.31,7.78,32.47,32.47,0,0,1-13.66,2.78q-9.62,0-16.12-2.81a22.59,22.59,0,0,1-10.2-8.43A24,24,0,0,1,521.52,413.23Z"/><path d="M590.94,436V365.13h51.24v8.37H600.32v21.7h39.2v8.32h-39.2v24.12h43.5V436Z"/><path d="M656.68,436V365.13h9.62l37.22,55.64V365.13h9V436h-9.62l-37.22-55.69V436Z"/><rect x="495.5" y="70" width="27" height="35"/><rect x="681.5" y="70" width="28" height="35"/></g></g></svg>